<mxfile host="app.diagrams.net" modified="2021-01-01T18:01:39.325Z" agent="5.0 (Windows NT 10.0; Win64; x64) AppleWebKit/537.36 (KHTML, like Gecko) Chrome/87.0.4280.88 Safari/537.36" etag="E2RAP6xx-4y2Y-JHj7v9" version="14.1.6" type="github">
  <diagram name="Page-1" id="97916047-d0de-89f5-080d-49f4d83e522f">
    <mxGraphModel dx="1736" dy="964" grid="1" gridSize="10" guides="1" tooltips="1" connect="1" arrows="1" fold="1" page="1" pageScale="1.5" pageWidth="1169" pageHeight="827" background="#ffffff" math="0" shadow="0">
      <root>
        <mxCell id="0" />
        <mxCell id="1" parent="0" />
        <mxCell id="yqquN4MTQsmdkEivls3R-68" style="edgeStyle=orthogonalEdgeStyle;rounded=0;orthogonalLoop=1;jettySize=auto;html=1;fontSize=19;" edge="1" parent="1" source="2" target="4">
          <mxGeometry relative="1" as="geometry" />
        </mxCell>
        <mxCell id="yqquN4MTQsmdkEivls3R-70" style="edgeStyle=orthogonalEdgeStyle;rounded=0;orthogonalLoop=1;jettySize=auto;html=1;entryX=0.5;entryY=0;entryDx=0;entryDy=0;fontSize=19;" edge="1" parent="1" source="2" target="6">
          <mxGeometry relative="1" as="geometry" />
        </mxCell>
        <mxCell id="2" value="Home Page" style="rounded=1;fillColor=#10739E;strokeColor=none;shadow=1;gradientColor=none;fontStyle=1;fontColor=#FFFFFF;fontSize=20;arcSize=0;" parent="1" vertex="1">
          <mxGeometry x="400" y="120" width="200" height="70" as="geometry" />
        </mxCell>
        <mxCell id="4" value="Admin" style="rounded=1;fillColor=#10739E;strokeColor=none;shadow=1;gradientColor=none;fontStyle=1;fontColor=#FFFFFF;fontSize=19;" parent="1" vertex="1">
          <mxGeometry x="50" y="300" width="200" height="60" as="geometry" />
        </mxCell>
        <mxCell id="yqquN4MTQsmdkEivls3R-73" style="edgeStyle=orthogonalEdgeStyle;rounded=0;orthogonalLoop=1;jettySize=auto;html=1;entryX=0.42;entryY=0.033;entryDx=0;entryDy=0;entryPerimeter=0;fontSize=19;" edge="1" parent="1" source="6" target="26">
          <mxGeometry relative="1" as="geometry">
            <Array as="points">
              <mxPoint x="1574" y="330" />
            </Array>
          </mxGeometry>
        </mxCell>
        <mxCell id="yqquN4MTQsmdkEivls3R-75" style="edgeStyle=orthogonalEdgeStyle;rounded=0;orthogonalLoop=1;jettySize=auto;html=1;entryX=0.5;entryY=0;entryDx=0;entryDy=0;fontSize=19;" edge="1" parent="1" source="6" target="23">
          <mxGeometry relative="1" as="geometry" />
        </mxCell>
        <mxCell id="6" value="Faculty" style="rounded=1;fillColor=#10739E;strokeColor=none;shadow=1;gradientColor=none;fontStyle=1;fontColor=#FFFFFF;fontSize=17;" parent="1" vertex="1">
          <mxGeometry x="850" y="290" width="220" height="70" as="geometry" />
        </mxCell>
        <mxCell id="8" value="Form: Claim Of Remuneration" style="rounded=1;fillColor=#10739E;strokeColor=none;shadow=1;gradientColor=none;fontStyle=1;fontColor=#FFFFFF;fontSize=19;" parent="1" vertex="1">
          <mxGeometry x="450" y="560" width="300" height="60" as="geometry" />
        </mxCell>
        <mxCell id="9" value="Form : Bank" style="rounded=1;fillColor=#10739E;strokeColor=none;shadow=1;gradientColor=none;fontStyle=1;fontColor=#FFFFFF;fontSize=19;" parent="1" vertex="1">
          <mxGeometry x="490" y="680" width="200" height="60" as="geometry" />
        </mxCell>
        <mxCell id="23" value="Internal" style="rounded=1;fillColor=#10739E;strokeColor=none;shadow=1;gradientColor=none;fontStyle=1;fontColor=#FFFFFF;fontSize=19;" parent="1" vertex="1">
          <mxGeometry x="490" y="430" width="200" height="60" as="geometry" />
        </mxCell>
        <mxCell id="24" value="External" style="rounded=1;fillColor=#10739E;strokeColor=none;shadow=1;gradientColor=none;fontStyle=1;fontColor=#FFFFFF;fontSize=19;" parent="1" vertex="1">
          <mxGeometry x="830" y="430" width="200" height="60" as="geometry" />
        </mxCell>
        <mxCell id="25" value="Expert" style="rounded=1;fillColor=#10739E;strokeColor=none;shadow=1;gradientColor=none;fontStyle=1;fontColor=#FFFFFF;fontSize=19;" parent="1" vertex="1">
          <mxGeometry x="1200" y="420" width="200" height="60" as="geometry" />
        </mxCell>
        <mxCell id="26" value="Lab Assitant" style="rounded=1;fillColor=#10739E;strokeColor=none;shadow=1;gradientColor=none;fontStyle=1;fontColor=#FFFFFF;fontSize=19;" parent="1" vertex="1">
          <mxGeometry x="1490" y="420" width="200" height="60" as="geometry" />
        </mxCell>
        <mxCell id="yqquN4MTQsmdkEivls3R-56" value="Form: Claim Of Remuneration" style="rounded=1;fillColor=#10739E;strokeColor=none;shadow=1;gradientColor=none;fontStyle=1;fontColor=#FFFFFF;fontSize=19;" vertex="1" parent="1">
          <mxGeometry x="807.5" y="560" width="305" height="60" as="geometry" />
        </mxCell>
        <mxCell id="yqquN4MTQsmdkEivls3R-57" value="Form : Bank" style="rounded=1;fillColor=#10739E;strokeColor=none;shadow=1;gradientColor=none;fontStyle=1;fontColor=#FFFFFF;fontSize=19;" vertex="1" parent="1">
          <mxGeometry x="860" y="680" width="200" height="60" as="geometry" />
        </mxCell>
        <mxCell id="yqquN4MTQsmdkEivls3R-58" value="Local Allowance" style="rounded=1;fillColor=#10739E;strokeColor=none;shadow=1;gradientColor=none;fontStyle=1;fontColor=#FFFFFF;fontSize=19;" vertex="1" parent="1">
          <mxGeometry x="860" y="800" width="200" height="60" as="geometry" />
        </mxCell>
        <mxCell id="yqquN4MTQsmdkEivls3R-59" value="Form: Claim Of Remuneration" style="rounded=1;fillColor=#10739E;strokeColor=none;shadow=1;gradientColor=none;fontStyle=1;fontColor=#FFFFFF;fontSize=19;" vertex="1" parent="1">
          <mxGeometry x="1150" y="560" width="290" height="60" as="geometry" />
        </mxCell>
        <mxCell id="yqquN4MTQsmdkEivls3R-60" value="Form: Claim Of Remuneration" style="rounded=1;fillColor=#10739E;strokeColor=none;shadow=1;gradientColor=none;fontStyle=1;fontColor=#FFFFFF;fontSize=19;" vertex="1" parent="1">
          <mxGeometry x="1460" y="560" width="280" height="60" as="geometry" />
        </mxCell>
        <mxCell id="yqquN4MTQsmdkEivls3R-61" value="Form : Bank" style="rounded=1;fillColor=#10739E;strokeColor=none;shadow=1;gradientColor=none;fontStyle=1;fontColor=#FFFFFF;fontSize=19;" vertex="1" parent="1">
          <mxGeometry x="1200" y="680" width="200" height="60" as="geometry" />
        </mxCell>
        <mxCell id="yqquN4MTQsmdkEivls3R-62" value="Form : Bank" style="rounded=1;fillColor=#10739E;strokeColor=none;shadow=1;gradientColor=none;fontStyle=1;fontColor=#FFFFFF;fontSize=19;" vertex="1" parent="1">
          <mxGeometry x="1490" y="680" width="200" height="60" as="geometry" />
        </mxCell>
        <mxCell id="yqquN4MTQsmdkEivls3R-80" value="" style="endArrow=classic;html=1;fontSize=19;" edge="1" parent="1">
          <mxGeometry width="50" height="50" relative="1" as="geometry">
            <mxPoint x="1310" y="330" as="sourcePoint" />
            <mxPoint x="1310" y="422" as="targetPoint" />
          </mxGeometry>
        </mxCell>
        <mxCell id="yqquN4MTQsmdkEivls3R-83" value="" style="endArrow=classic;html=1;fontSize=19;exitX=0.5;exitY=1;exitDx=0;exitDy=0;entryX=0.66;entryY=0;entryDx=0;entryDy=0;entryPerimeter=0;" edge="1" parent="1" source="6" target="24">
          <mxGeometry width="50" height="50" relative="1" as="geometry">
            <mxPoint x="930" y="390" as="sourcePoint" />
            <mxPoint x="960" y="420" as="targetPoint" />
          </mxGeometry>
        </mxCell>
        <mxCell id="yqquN4MTQsmdkEivls3R-84" value="" style="endArrow=classic;html=1;fontSize=19;exitX=0.5;exitY=1;exitDx=0;exitDy=0;" edge="1" parent="1" source="23">
          <mxGeometry width="50" height="50" relative="1" as="geometry">
            <mxPoint x="560" y="550" as="sourcePoint" />
            <mxPoint x="590" y="570" as="targetPoint" />
          </mxGeometry>
        </mxCell>
        <mxCell id="yqquN4MTQsmdkEivls3R-87" value="" style="endArrow=classic;html=1;fontSize=19;entryX=0.5;entryY=0;entryDx=0;entryDy=0;" edge="1" parent="1" target="yqquN4MTQsmdkEivls3R-56">
          <mxGeometry width="50" height="50" relative="1" as="geometry">
            <mxPoint x="960" y="492" as="sourcePoint" />
            <mxPoint x="960" y="500" as="targetPoint" />
          </mxGeometry>
        </mxCell>
        <mxCell id="yqquN4MTQsmdkEivls3R-88" value="" style="endArrow=classic;html=1;fontSize=19;" edge="1" parent="1">
          <mxGeometry width="50" height="50" relative="1" as="geometry">
            <mxPoint x="1310" y="480" as="sourcePoint" />
            <mxPoint x="1310" y="560" as="targetPoint" />
            <Array as="points">
              <mxPoint x="1310" y="510" />
            </Array>
          </mxGeometry>
        </mxCell>
        <mxCell id="yqquN4MTQsmdkEivls3R-90" value="" style="endArrow=classic;html=1;fontSize=19;" edge="1" parent="1">
          <mxGeometry width="50" height="50" relative="1" as="geometry">
            <mxPoint x="1600" y="490" as="sourcePoint" />
            <mxPoint x="1600" y="560" as="targetPoint" />
            <Array as="points">
              <mxPoint x="1600" y="510" />
            </Array>
          </mxGeometry>
        </mxCell>
        <mxCell id="yqquN4MTQsmdkEivls3R-91" value="" style="endArrow=classic;html=1;fontSize=19;entryX=0.5;entryY=0;entryDx=0;entryDy=0;" edge="1" parent="1" target="9">
          <mxGeometry width="50" height="50" relative="1" as="geometry">
            <mxPoint x="590" y="620" as="sourcePoint" />
            <mxPoint x="604" y="680" as="targetPoint" />
          </mxGeometry>
        </mxCell>
        <mxCell id="yqquN4MTQsmdkEivls3R-92" value="" style="endArrow=classic;html=1;fontSize=19;exitX=0.5;exitY=1;exitDx=0;exitDy=0;entryX=0.5;entryY=0;entryDx=0;entryDy=0;" edge="1" parent="1" source="yqquN4MTQsmdkEivls3R-56" target="yqquN4MTQsmdkEivls3R-57">
          <mxGeometry width="50" height="50" relative="1" as="geometry">
            <mxPoint x="960" y="670" as="sourcePoint" />
            <mxPoint x="1030" y="660" as="targetPoint" />
          </mxGeometry>
        </mxCell>
        <mxCell id="yqquN4MTQsmdkEivls3R-93" value="" style="endArrow=classic;html=1;fontSize=19;entryX=0.6;entryY=0;entryDx=0;entryDy=0;entryPerimeter=0;" edge="1" parent="1" target="yqquN4MTQsmdkEivls3R-61">
          <mxGeometry width="50" height="50" relative="1" as="geometry">
            <mxPoint x="1320" y="622" as="sourcePoint" />
            <mxPoint x="1400" y="660" as="targetPoint" />
          </mxGeometry>
        </mxCell>
        <mxCell id="yqquN4MTQsmdkEivls3R-94" value="" style="endArrow=classic;html=1;fontSize=19;exitX=0.5;exitY=1;exitDx=0;exitDy=0;" edge="1" parent="1" source="yqquN4MTQsmdkEivls3R-60">
          <mxGeometry width="50" height="50" relative="1" as="geometry">
            <mxPoint x="1600" y="680" as="sourcePoint" />
            <mxPoint x="1600" y="682" as="targetPoint" />
          </mxGeometry>
        </mxCell>
        <mxCell id="yqquN4MTQsmdkEivls3R-95" value="" style="endArrow=classic;html=1;fontSize=19;exitX=0.5;exitY=1;exitDx=0;exitDy=0;entryX=0.5;entryY=0;entryDx=0;entryDy=0;" edge="1" parent="1" source="yqquN4MTQsmdkEivls3R-57" target="yqquN4MTQsmdkEivls3R-58">
          <mxGeometry width="50" height="50" relative="1" as="geometry">
            <mxPoint x="950" y="790" as="sourcePoint" />
            <mxPoint x="1020" y="760" as="targetPoint" />
          </mxGeometry>
        </mxCell>
      </root>
    </mxGraphModel>
  </diagram>
</mxfile>
